# xmcd
#
# Track frame offsets:
#	150
#	31354
#	70058
#
# Disc length: 1310 seconds
#
# Revision: 0
# Processed by: cddbd v1.5.2PL0 Copyright (c) Steve Scherf et al.
# Submitted via: EasyCDDAExtractor 12.0.0.1
#
DISCID=1f051c03
DTITLE=Nick Kamen - Each Time You Break My Heart
DYEAR=1900
DGENRE=
TTITLE0=Each Time You Break My Heart (Dance Mix)
TTITLE1=Each Time You Break My Heart (Extended Version)
TTITLE2=Loving You Is Sweeter Than Ever (Extended Dance Mix)
EXTD=
EXTT0=
EXTT1=
EXTT2=
PLAYORDER=
